<svg viewBox="0 0 1000 400" xmlns="http://www.w3.org/2000/svg">
  <!-- Axis lines -->
  <rect width="100%" height="100%" fill="#000000"/>
  <!-- Axis lines -->
  <line x1="80" y1="0" x2="80" y2="400" stroke="white" stroke-width="3"/>
  <line x1="80" y1="400" x2="1000" y2="400" stroke="white" stroke-width="4"/>
  <line x1="1000" y1="0" x2="1000" y2="400" stroke="white" stroke-width="3"/>
  <line x1="80" y1="0" x2="1000" y2="0" stroke="white" stroke-width="3"/>

  <!-- Y-axis labels -->
  <text x="10" y="390" font-family="Arial" fill="white" font-size="25">${minCount}</text>
  <text x="10" y="20" font-family="Arial" fill="white" font-size="25">${maxCount}</text>

  <!-- Visit Line (red) -->
  <polyline points="100,160 150,155 200,280 250,170 300,140 350,265 400,210 450,130 500,180 550,230 600,190" fill="none" stroke="red" stroke-width="3"/>

  <!-- Unique Visit Line (green) -->
  <polyline points="100,170 150,210 200,310 250,190 300,220 350,300 400,265 450,260 500,140 550,250 600,275" fill="none" stroke="green" stroke-width="3"/>
</svg>
